<?xml version="1.0" encoding="utf-8"?>
<!-- Generator: Adobe Illustrator 16.0.0, SVG Export Plug-In . SVG Version: 6.00 Build 0)  -->
<!DOCTYPE svg PUBLIC "-//W3C//DTD SVG 1.1//EN" "http://www.w3.org/Graphics/SVG/1.1/DTD/svg11.dtd">
<svg version="1.1" xmlns="http://www.w3.org/2000/svg" xmlns:xlink="http://www.w3.org/1999/xlink" x="0px" y="0px"
	 width="484.797px" height="169.386px" viewBox="0 0 484.797 169.386" enable-background="new 0 0 484.797 169.386"
	 xml:space="preserve">
<g id="Layer_2" display="none">
	<rect display="inline" stroke="#FFFFFF" stroke-miterlimit="10" width="484.797" height="174.052"/>
</g>
<g id="Layer_1">
	<g>
		<path fill="#FFFFFF" d="M193.54,106.744h2.897l3.624,10.104c0.456,1.291,0.889,2.626,1.345,3.939h0.115
			c0.455-1.313,0.851-2.648,1.307-3.939l3.582-10.104h2.898v18.908h-2.237v-10.41c0-1.647,0.185-3.919,0.305-5.591h-0.115
			l-1.5,4.312l-3.562,9.78h-1.595l-3.579-9.78l-1.497-4.312h-0.116c0.121,1.672,0.305,3.943,0.305,5.591v10.41h-2.178V106.744z"/>
		<path fill="#FFFFFF" d="M213.393,122.019c0-3.051,2.632-4.576,8.602-5.227c-0.007-1.802-0.604-3.536-2.891-3.536
			c-1.62,0-3.08,0.767-4.175,1.501L214,113.132c1.287-0.847,3.252-1.83,5.499-1.83c3.418,0,4.865,2.273,4.865,5.761v8.59h-1.959
			l-0.2-1.673h-0.078c-1.336,1.11-2.894,2.02-4.633,2.02C215.151,125.999,213.393,124.544,213.393,122.019 M221.994,122.237v-3.892
			c-4.693,0.565-6.28,1.715-6.28,3.505c0,1.592,1.079,2.239,2.453,2.239C219.521,124.09,220.637,123.432,221.994,122.237"/>
		<polygon fill="#FFFFFF" points="228.779,105.128 231.105,105.128 231.105,119.028 231.184,119.028 237.163,111.648 
			239.79,111.648 235.099,117.275 240.407,125.653 237.814,125.653 233.731,118.923 231.105,121.978 231.105,125.653 
			228.779,125.653 		"/>
		<path fill="#FFFFFF" d="M242.604,107.239c0-0.931,0.716-1.53,1.637-1.53c0.922,0,1.637,0.6,1.637,1.53
			c0,0.894-0.715,1.53-1.637,1.53C243.319,108.77,242.604,108.133,242.604,107.239 M243.036,111.649h2.371v14.003h-2.371V111.649z"
			/>
		<path fill="#FFFFFF" d="M250.123,111.649h1.958l0.199,2.02h0.079c1.335-1.313,2.774-2.367,4.698-2.367
			c2.951,0,4.276,1.905,4.276,5.478v8.873h-2.371v-8.567c0-2.607-0.788-3.724-2.643-3.724c-1.431,0-2.423,0.729-3.826,2.149v10.142
			h-2.371V111.649z"/>
		<path fill="#FFFFFF" d="M264.818,128.344c0-1.199,0.765-2.33,2.053-3.166v-0.117c-0.712-0.445-1.251-1.194-1.251-2.296
			c0-1.159,0.814-2.088,1.54-2.597v-0.115c-0.927-0.729-1.813-2.092-1.813-3.761c0-3.064,2.414-4.99,5.256-4.99
			c0.769,0,1.468,0.153,1.976,0.348h4.887v1.825h-2.877c0.661,0.637,1.142,1.687,1.142,2.881c0,2.999-2.266,4.854-5.127,4.854
			c-0.681,0-1.454-0.166-2.087-0.475c-0.508,0.424-0.894,0.887-0.894,1.653c0,0.891,0.577,1.521,2.453,1.521h2.727
			c3.255,0,4.894,1.023,4.894,3.347c0,2.6-2.755,4.841-7.082,4.841C267.183,132.097,264.818,130.754,264.818,128.344
			 M275.372,127.61c0-1.297-0.982-1.739-2.821-1.739h-2.418c-0.533,0-1.196-0.059-1.819-0.21c-1,0.71-1.427,1.546-1.427,2.348
			c0,1.507,1.517,2.455,4.06,2.455C273.616,130.464,275.372,129.071,275.372,127.61 M273.576,116.292
			c0-2.036-1.326-3.271-2.974-3.271c-1.651,0-2.978,1.218-2.978,3.271c0,2.039,1.362,3.327,2.978,3.327
			C272.215,119.619,273.576,118.331,273.576,116.292"/>
		<path fill="#FFFFFF" d="M284.649,111.785l2.007-0.137h5.229v1.931h-7.236V111.785z M286.55,109.438
			c0-2.847,1.295-4.655,4.104-4.655c0.851,0,1.691,0.215,2.324,0.481l-0.5,1.81c-0.534-0.244-1.089-0.36-1.587-0.36
			c-1.32,0-1.97,0.924-1.97,2.733v16.207h-2.371V109.438z"/>
		<path fill="#FFFFFF" d="M294.382,120.522v-8.873h2.37v8.567c0,2.608,0.788,3.724,2.643,3.724c1.433,0,2.424-0.71,3.749-2.359
			v-9.932h2.369v14.004h-1.956l-0.2-2.192h-0.08c-1.297,1.529-2.695,2.538-4.617,2.538
			C295.709,125.999,294.382,124.095,294.382,120.522"/>
		<path fill="#FFFFFF" d="M310.24,122.841v-17.713h2.37v17.885c0,0.726,0.316,1.012,0.66,1.012c0.137,0,0.253,0,0.519-0.058
			l0.321,1.811c-0.336,0.122-0.74,0.222-1.363,0.222C310.973,125.999,310.24,124.866,310.24,122.841"/>
		<path fill="#FFFFFF" d="M317.586,122.841v-17.713h2.37v17.885c0,0.726,0.316,1.012,0.66,1.012c0.137,0,0.253,0,0.52-0.058
			l0.32,1.811c-0.336,0.122-0.741,0.222-1.364,0.222C318.317,125.999,317.586,124.866,317.586,122.841"/>
		<path fill="#FFFFFF" d="M329.254,120.766c0-5.61,8.635-6.524,8.635-10.585c0-1.099-0.504-2.085-1.788-2.085
			c-1.415,0-2.325,1.181-2.325,2.755c0,3.53,3.883,8.243,7.511,10.931c1.493,1.122,2.94,1.9,4.159,2.244l-0.642,1.974
			c-1.507-0.418-3.211-1.293-4.938-2.636c-4.143-3.208-8.13-8.471-8.13-12.476c0-2.528,1.747-4.489,4.36-4.489
			c2.342,0,3.716,1.547,3.716,3.746c0,4.852-8.256,6.325-8.256,10.478c0,2.1,1.649,3.489,3.729,3.489
			c1.575,0,3.08-0.911,4.327-2.225c1.551-1.673,2.688-3.845,3.394-6.426h2.202c-0.829,2.822-2.104,5.425-3.942,7.562
			c-1.591,1.759-3.6,2.977-6.25,2.977C331.594,125.999,329.254,123.808,329.254,120.766"/>
		<path fill="#FFFFFF" d="M353.562,107.239c0-0.931,0.715-1.53,1.637-1.53s1.637,0.6,1.637,1.53c0,0.894-0.715,1.53-1.637,1.53
			S353.562,108.133,353.562,107.239 M353.995,111.649h2.37v14.003h-2.37V111.649z"/>
		<path fill="#FFFFFF" d="M361.081,111.649h1.958l0.2,2.03h0.078c1.228-1.324,2.691-2.378,4.357-2.378
			c2.143,0,3.292,1.026,3.867,2.67c1.456-1.575,2.917-2.67,4.621-2.67c2.877,0,4.259,1.905,4.259,5.478v8.873h-2.37v-8.567
			c0-2.607-0.825-3.724-2.604-3.724c-1.086,0-2.215,0.71-3.51,2.149v10.142h-2.371v-8.567c0-2.607-0.823-3.724-2.605-3.724
			c-1.05,0-2.214,0.71-3.509,2.149v10.142h-2.371V111.649z"/>
		<path fill="#FFFFFF" d="M384.962,111.649h1.957l0.2,2.03h0.079c1.226-1.324,2.691-2.378,4.357-2.378
			c2.142,0,3.29,1.026,3.867,2.67c1.455-1.575,2.915-2.67,4.619-2.67c2.879,0,4.261,1.905,4.261,5.478v8.873h-2.37v-8.567
			c0-2.607-0.825-3.724-2.605-3.724c-1.085,0-2.216,0.71-3.511,2.149v10.142h-2.369v-8.567c0-2.607-0.825-3.724-2.606-3.724
			c-1.05,0-2.213,0.71-3.509,2.149v10.142h-2.37V111.649z"/>
		<path fill="#FFFFFF" d="M407.801,118.67c0-4.559,3.072-7.367,6.295-7.367c3.573,0,5.591,2.565,5.591,6.572
			c0,0.499-0.045,0.999-0.111,1.346h-9.43c0.167,2.967,1.981,4.89,4.65,4.89c1.345,0,2.448-0.433,3.485-1.119l0.851,1.554
			c-1.23,0.806-2.72,1.454-4.625,1.454C410.772,125.999,407.801,123.271,407.801,118.67 M417.591,117.523
			c0-2.808-1.262-4.333-3.452-4.333c-1.97,0-3.728,1.58-4.017,4.333H417.591z"/>
		<path fill="#FFFFFF" d="M422.13,118.67c0-4.544,2.867-7.367,6.06-7.367c1.629,0,2.698,0.612,3.925,1.623l-0.1-2.401v-5.396h2.37
			v20.525h-1.959L432.227,124h-0.078c-1.088,1.09-2.582,1.997-4.25,1.997C424.399,125.997,422.13,123.335,422.13,118.67
			 M432.015,122.094v-7.34c-1.196-1.064-2.271-1.457-3.414-1.457c-2.239,0-4.021,2.16-4.021,5.351c0,3.358,1.391,5.357,3.845,5.357
			C429.718,124.005,430.842,123.374,432.015,122.094"/>
		<path fill="#FFFFFF" d="M438.682,107.239c0-0.931,0.717-1.53,1.639-1.53c0.92,0,1.637,0.6,1.637,1.53
			c0,0.894-0.717,1.53-1.637,1.53C439.398,108.77,438.682,108.133,438.682,107.239 M439.116,111.649h2.37v14.003h-2.37V111.649z"/>
		<path fill="#FFFFFF" d="M445.336,122.019c0-3.051,2.631-4.576,8.599-5.227c-0.005-1.802-0.604-3.536-2.89-3.536
			c-1.619,0-3.079,0.767-4.177,1.501l-0.927-1.625c1.288-0.847,3.253-1.83,5.501-1.83c3.417,0,4.864,2.273,4.864,5.761v8.59h-1.959
			l-0.201-1.673h-0.078c-1.335,1.11-2.892,2.02-4.631,2.02C447.093,125.999,445.336,124.544,445.336,122.019 M453.935,122.237
			v-3.892c-4.692,0.565-6.279,1.715-6.279,3.505c0,1.592,1.08,2.239,2.453,2.239C451.463,124.09,452.58,123.432,453.935,122.237"/>
		<path fill="#FFFFFF" d="M460.732,121.324v-7.745h-2.083v-1.794l2.188-0.137l0.287-3.929h1.978v3.929h3.794v1.931h-3.794v7.784
			c0,1.714,0.551,2.706,2.165,2.706c0.498,0,1.141-0.188,1.597-0.377l0.457,1.788c-0.785,0.268-1.724,0.517-2.6,0.517
			C461.742,125.997,460.732,124.11,460.732,121.324"/>
		<path fill="#FFFFFF" d="M468.609,118.67c0-4.559,3.072-7.367,6.295-7.367c3.573,0,5.591,2.565,5.591,6.572
			c0,0.499-0.045,0.999-0.111,1.346h-9.43c0.167,2.967,1.981,4.89,4.65,4.89c1.345,0,2.448-0.433,3.485-1.119l0.851,1.554
			c-1.23,0.806-2.72,1.454-4.625,1.454C471.581,125.999,468.609,123.271,468.609,118.67 M478.399,117.523
			c0-2.808-1.262-4.333-3.452-4.333c-1.97,0-3.728,1.58-4.017,4.333H478.399z"/>
		<path fill="#FFFFFF" d="M192.441,150.274c0-6.056,3.333-9.733,8.083-9.733c4.75,0,8.081,3.688,8.081,9.733
			c0,6.056-3.331,9.867-8.081,9.867C195.775,160.142,192.441,156.33,192.441,150.274 M206.121,150.274
			c0-4.712-2.221-7.617-5.597-7.617c-3.377,0-5.597,2.905-5.597,7.617c0,4.711,2.22,7.753,5.597,7.753
			C203.899,158.027,206.121,154.985,206.121,150.274"/>
		<path fill="#FFFFFF" d="M212.446,145.793h1.958l0.199,1.616h0.08c1.267-1.054,2.842-1.963,4.464-1.963
			c3.619,0,5.553,2.808,5.553,7.135c0,4.774-2.865,7.561-6.066,7.561c-1.282,0-2.595-0.591-3.882-1.622l0.064,2.444v4.741h-2.369
			V145.793z M222.251,152.603c0-3.09-1.057-5.162-3.691-5.162c-1.187,0-2.383,0.652-3.745,1.911v7.341
			c1.269,1.064,2.485,1.455,3.411,1.455C220.542,158.147,222.251,156.062,222.251,152.603"/>
		<path fill="#FFFFFF" d="M227.392,152.813c0-4.559,3.071-7.366,6.295-7.366c3.572,0,5.59,2.564,5.59,6.572
			c0,0.499-0.045,0.999-0.112,1.345h-9.43c0.167,2.967,1.982,4.89,4.65,4.89c1.345,0,2.449-0.433,3.486-1.118l0.85,1.554
			c-1.229,0.805-2.72,1.453-4.625,1.453C230.364,160.142,227.392,157.413,227.392,152.813 M237.182,151.667
			c0-2.808-1.263-4.334-3.453-4.334c-1.969,0-3.728,1.581-4.016,4.334H237.182z"/>
		<path fill="#FFFFFF" d="M242.72,145.793h1.957l0.201,2.019h0.078c1.336-1.313,2.775-2.366,4.697-2.366
			c2.953,0,4.277,1.904,4.277,5.478v8.873h-2.37v-8.567c0-2.607-0.789-3.724-2.644-3.724c-1.43,0-2.422,0.729-3.827,2.149v10.142
			h-2.37V145.793z"/>
		<path fill="#FFFFFF" d="M268.347,140.887h2.715l6.396,18.91h-2.548l-3.298-10.563c-0.679-2.112-1.285-4.188-1.893-6.37h-0.116
			c-0.583,2.193-1.19,4.258-1.871,6.37l-3.333,10.563h-2.448L268.347,140.887z M265.314,152.115h8.706v1.92h-8.706V152.115z"/>
		<path fill="#FFFFFF" d="M278.867,152.813c0-4.674,3.156-7.366,6.739-7.366c1.836,0,3.109,0.758,4.096,1.645l-1.211,1.564
			c-0.816-0.735-1.68-1.236-2.779-1.236c-2.536,0-4.397,2.185-4.397,5.394c0,3.208,1.758,5.356,4.334,5.356
			c1.278,0,2.413-0.623,3.287-1.396l1.028,1.588c-1.258,1.124-2.849,1.781-4.527,1.781
			C281.709,160.142,278.867,157.449,278.867,152.813"/>
		<path fill="#FFFFFF" d="M291.397,152.813c0-4.674,3.157-7.366,6.738-7.366c1.839,0,3.111,0.758,4.097,1.645l-1.212,1.564
			c-0.815-0.735-1.678-1.236-2.778-1.236c-2.537,0-4.396,2.185-4.396,5.394c0,3.208,1.756,5.356,4.334,5.356
			c1.278,0,2.412-0.623,3.286-1.396l1.029,1.588c-1.26,1.124-2.848,1.781-4.528,1.781
			C294.238,160.142,291.397,157.449,291.397,152.813"/>
		<path fill="#FFFFFF" d="M303.929,152.813c0-4.559,3.071-7.366,6.295-7.366c3.573,0,5.59,2.564,5.59,6.572
			c0,0.499-0.043,0.999-0.11,1.345h-9.431c0.168,2.967,1.981,4.89,4.651,4.89c1.346,0,2.447-0.433,3.484-1.118l0.851,1.554
			c-1.229,0.805-2.72,1.453-4.625,1.453C306.9,160.142,303.929,157.413,303.929,152.813 M313.718,151.667
			c0-2.808-1.262-4.334-3.451-4.334c-1.969,0-3.728,1.581-4.018,4.334H313.718z"/>
		<path fill="#FFFFFF" d="M317.703,158.198l1.172-1.562c1.215,0.981,2.451,1.659,4.134,1.659c1.836,0,2.749-0.979,2.749-2.174
			c0-1.442-1.65-2.078-3.202-2.655c-1.963-0.717-4.176-1.683-4.176-4.045c0-2.24,1.795-3.976,4.829-3.976
			c1.744,0,3.269,0.715,4.354,1.574l-1.133,1.518c-0.963-0.712-1.954-1.245-3.193-1.245c-1.765,0-2.577,0.939-2.577,2.007
			c0,1.333,1.521,1.838,3.108,2.431c2.02,0.761,4.271,1.583,4.271,4.248c0,2.272-1.805,4.162-5.111,4.162
			C320.939,160.141,319.021,159.299,317.703,158.198"/>
		<path fill="#FFFFFF" d="M329.772,158.198l1.172-1.562c1.215,0.981,2.451,1.659,4.134,1.659c1.836,0,2.749-0.979,2.749-2.174
			c0-1.442-1.65-2.078-3.202-2.655c-1.962-0.717-4.176-1.683-4.176-4.045c0-2.24,1.795-3.976,4.829-3.976
			c1.744,0,3.269,0.715,4.354,1.574l-1.133,1.518c-0.963-0.712-1.954-1.245-3.193-1.245c-1.763,0-2.577,0.939-2.577,2.007
			c0,1.333,1.521,1.838,3.108,2.431c2.02,0.761,4.271,1.583,4.271,4.248c0,2.272-1.805,4.162-5.111,4.162
			C333.009,160.141,331.089,159.299,329.772,158.198"/>
		<path fill="#FFFFFF" d="M348.289,156.161c0-3.051,2.632-4.576,8.601-5.226c-0.007-1.802-0.604-3.537-2.891-3.537
			c-1.619,0-3.079,0.768-4.176,1.501l-0.927-1.625c1.286-0.847,3.252-1.829,5.5-1.829c3.416,0,4.864,2.273,4.864,5.76v8.591h-1.959
			l-0.2-1.673h-0.078c-1.336,1.109-2.894,2.019-4.632,2.019C350.048,160.142,348.289,158.687,348.289,156.161 M356.89,156.38v-3.891
			c-4.692,0.565-6.279,1.715-6.279,3.505c0,1.592,1.079,2.238,2.453,2.238C354.417,158.232,355.533,157.574,356.89,156.38"/>
		<path fill="#FFFFFF" d="M369.435,145.793h1.958l0.2,2.548h0.078c0.976-1.774,2.406-2.896,3.982-2.896
			c0.621,0,1.056,0.08,1.495,0.29l-0.442,2.077c-0.481-0.15-0.798-0.231-1.357-0.231c-1.185,0-2.597,0.854-3.543,3.223v8.992h-2.371
			V145.793z"/>
		<path fill="#FFFFFF" d="M378.103,152.813c0-4.559,3.071-7.366,6.295-7.366c3.573,0,5.591,2.564,5.591,6.572
			c0,0.499-0.045,0.999-0.111,1.345h-9.431c0.168,2.967,1.982,4.89,4.651,4.89c1.345,0,2.448-0.433,3.485-1.118l0.851,1.554
			c-1.23,0.805-2.72,1.453-4.625,1.453C381.074,160.142,378.103,157.413,378.103,152.813 M387.893,151.667
			c0-2.808-1.263-4.334-3.453-4.334c-1.969,0-3.727,1.581-4.015,4.334H387.893z"/>
		<path fill="#FFFFFF" d="M392.16,156.161c0-3.051,2.632-4.576,8.6-5.226c-0.005-1.802-0.604-3.537-2.89-3.537
			c-1.619,0-3.079,0.768-4.177,1.501l-0.927-1.625c1.288-0.847,3.253-1.829,5.501-1.829c3.417,0,4.864,2.273,4.864,5.76v8.591
			h-1.959l-0.201-1.673h-0.078c-1.335,1.109-2.892,2.019-4.631,2.019C393.917,160.142,392.16,158.687,392.16,156.161 M400.76,156.38
			v-3.891c-4.693,0.565-6.279,1.715-6.279,3.505c0,1.592,1.08,2.238,2.453,2.238C398.288,158.232,399.405,157.574,400.76,156.38"/>
		<path fill="#FFFFFF" d="M407.544,156.983v-17.712h2.371v17.885c0,0.725,0.315,1.012,0.66,1.012c0.137,0,0.251,0,0.519-0.058
			l0.321,1.811c-0.337,0.121-0.74,0.221-1.363,0.221C408.277,160.142,407.544,159.009,407.544,156.983"/>
		<path fill="#FFFFFF" d="M414.455,141.383c0-0.933,0.718-1.532,1.639-1.532c0.92,0,1.637,0.6,1.637,1.532
			c0,0.894-0.717,1.53-1.637,1.53C415.173,142.913,414.455,142.276,414.455,141.383 M414.891,145.791h2.37v14.005h-2.37V145.791z"/>
		<path fill="#FFFFFF" d="M422.391,155.467v-7.744h-2.083v-1.795l2.189-0.137l0.286-3.928h1.979v3.928h3.794v1.932h-3.794v7.784
			c0,1.713,0.551,2.706,2.166,2.706c0.497,0,1.14-0.188,1.596-0.378l0.456,1.789c-0.784,0.268-1.724,0.517-2.599,0.517
			C423.401,160.141,422.391,158.253,422.391,155.467"/>
		<path fill="#FFFFFF" d="M430.308,165.544l0.464-1.889c0.277,0.095,0.707,0.21,1.066,0.21c1.58,0,2.58-1.269,3.158-3.006
			l0.318-1.034l-5.62-14.032h2.442l2.858,7.752c0.439,1.217,0.91,2.649,1.365,3.945h0.115c0.397-1.273,0.794-2.709,1.177-3.945
			l2.498-7.752h2.319l-5.275,15.157c-0.99,2.777-2.437,4.882-5.244,4.882C431.3,165.832,430.76,165.717,430.308,165.544"/>
		<path fill="#FFFFFF" d="M190.957,8.026h23.056c14.768,0,26.677,5.282,26.677,21.589c0,15.775-12.042,22.752-26.264,22.752h-8.297
			v22.772h-15.172V8.026z M213.529,40.322c8.344,0,12.292-3.718,12.292-10.706c0-7.024-4.494-9.543-12.703-9.543h-6.989v20.249
			H213.529z"/>
		<path fill="#FFFFFF" d="M251.066,59.265V3h15.139v56.884c0,3.245,1.501,4.276,2.736,4.276c0.583,0,0.993,0,1.854-0.205
			l1.806,11.16c-1.672,0.716-4.157,1.261-7.597,1.261C254.616,76.376,251.066,69.602,251.066,59.265"/>
		<path fill="#FFFFFF" d="M278.166,60.972c0-10.764,8.564-16.591,28.77-18.722c-0.302-4.469-2.531-7.386-8.077-7.386
			c-4.286,0-8.563,1.804-13.52,4.615l-5.381-9.938c6.484-3.962,13.791-6.724,21.822-6.724c13.059,0,20.294,7.462,20.294,23.117
			v29.207h-12.351l-1.091-5.232h-0.374c-4.3,3.778-9.123,6.467-14.864,6.467C284.078,76.376,278.166,69.579,278.166,60.972
			 M306.936,60.298v-8.924c-10.764,1.454-14.273,4.529-14.273,8.392c0,3.292,2.263,4.904,5.858,4.904
			C301.949,64.67,304.249,62.974,306.936,60.298"/>
		<path fill="#FFFFFF" d="M334.78,24.053h12.351l1.091,6.468h0.376c4.299-4.13,9.449-7.704,16.414-7.704
			c11.109,0,15.846,7.84,15.846,20.607v31.716H365.72V45.364c0-7.353-1.974-9.653-6.345-9.653c-3.803,0-6.127,1.769-9.457,4.965
			v34.464H334.78V24.053z"/>
		<path fill="#FFFFFF" d="M411.197,66.673l8.714-10.411c4.773,4.154,10.963,7.012,16.486,7.012c6.333,0,9.433-2.494,9.433-6.478
			c0-4.225-3.815-5.581-9.677-7.992l-8.723-3.717c-6.955-2.83-13.543-8.542-13.543-18.295c0-11.121,9.936-20.001,23.905-20.001
			c7.727,0,15.81,3.046,21.589,8.793l-7.661,9.563c-4.421-3.391-8.624-5.257-13.928-5.257c-5.234,0-8.563,2.18-8.563,6.018
			c0,4.118,4.39,5.612,10.25,7.945l8.552,3.463c8.194,3.313,13.313,8.772,13.313,18.256c0,11.146-9.295,20.803-25.287,20.803
			C427.324,76.376,418.045,73.069,411.197,66.673"/>
		<path fill="#FFFFFF" d="M82.762,3.001c-43.7,0-79.126,35.425-79.126,79.125c0,43.7,35.426,79.125,79.126,79.125
			c43.699,0,79.125-35.425,79.125-79.125C161.886,38.426,126.46,3.001,82.762,3.001 M82.762,141.692
			c-23.087,0-41.803-18.717-41.803-41.802c0-23.087,18.716-41.802,41.803-41.802c7.547,0,14.617,2.014,20.729,5.514v-0.01V63.51
			V50.704c0-10.836-8.862-20.147-19.697-20.156c-7.439-0.005-13.918,4.11-17.277,10.189c-1.254,2.271-3.64,3.68-6.234,3.68
			c-5.463,0-8.859-5.872-6.204-10.647c5.844-10.506,17.094-17.591,29.997-17.481c18.614,0.159,33.463,15.661,33.463,34.274v26.133
			c4.433,6.637,7.024,14.613,7.024,23.195C124.563,122.976,105.847,141.692,82.762,141.692"/>
		<path fill="#FFFFFF" d="M82.762,72.137c-15.327,0-27.752,12.426-27.752,27.753c0,15.326,12.425,27.751,27.752,27.751
			c15.326,0,27.75-12.425,27.75-27.751C110.512,84.563,98.088,72.137,82.762,72.137 M82.762,114.229
			c-7.568,0-13.703-6.137-13.703-13.702c0-7.567,6.134-13.703,13.703-13.703c7.567,0,13.701,6.136,13.701,13.703
			C96.463,108.092,90.329,114.229,82.762,114.229"/>
	</g>
</g>
</svg>
